<svg width="109" height="26" viewBox="0 0 109 26" fill="none" xmlns="http://www.w3.org/2000/svg">
<path d="M4.79755 12.6369C4.66401 12.4214 4.48619 12.2324 4.27423 12.0809C4.06227 11.9293 3.82034 11.8181 3.56224 11.7536C3.30413 11.6892 3.03492 11.6726 2.76996 11.705C2.50501 11.7374 2.2495 11.8181 2.01803 11.9425C1.78656 12.0668 1.58366 12.2324 1.42091 12.4298C1.25816 12.6272 1.13875 12.8525 1.06951 13.0928C1.00026 13.3332 0.982529 13.5839 1.01732 13.8306C1.05212 14.0773 1.13876 14.3152 1.2723 14.5308L5.45289 21.2752C6.54274 22.9945 8.31744 24.2438 10.3911 24.7512C12.4648 25.2587 14.6697 24.9833 16.5265 23.9849C18.3833 22.9866 19.7417 21.3461 20.3065 19.42C20.8714 17.494 20.5968 15.4381 19.5426 13.6996L17.6218 10.5957C17.3355 10.1937 16.8953 9.90854 16.391 9.79843C15.8867 9.68831 15.3563 9.76154 14.908 10.0032C14.4596 10.2448 14.1272 10.6366 13.9785 11.0987C13.8298 11.5607 13.8761 12.0582 14.1078 12.4896" stroke="black" stroke-linecap="round" stroke-linejoin="round"/>
<path d="M11.035 15.12L6.7414 8.19678C6.60786 7.98123 6.43003 7.79228 6.21808 7.64073C6.00612 7.48918 5.76419 7.37799 5.50608 7.31351C5.24798 7.24902 4.97877 7.23251 4.71381 7.26491C4.44886 7.29731 4.19335 7.37799 3.96188 7.50235C3.73041 7.6267 3.5275 7.7923 3.36476 7.98967C3.20201 8.18705 3.0826 8.41234 3.01336 8.65269C2.94411 8.89304 2.92638 9.14373 2.96117 9.39046C2.99597 9.63719 3.08261 9.87512 3.21615 10.0907L7.50972 17.0139" stroke="black" stroke-linecap="round" stroke-linejoin="round"/>
<path d="M15.9156 15.4146L11.1701 7.75489C10.9004 7.31957 10.4561 7.00185 9.9348 6.87162C9.41354 6.74139 8.85807 6.80931 8.39059 7.06046C7.92312 7.31161 7.58192 7.72539 7.44207 8.2108C7.30222 8.6962 7.37517 9.21346 7.64487 9.64878" stroke="black" stroke-linecap="round" stroke-linejoin="round"/>
<path d="M10.1303 6.93415L8.9665 5.05079C8.6968 4.61547 8.25245 4.29774 7.73119 4.16751C7.20992 4.03728 6.65446 4.10521 6.18698 4.35636C5.7195 4.6075 5.37831 5.02129 5.23846 5.5067C5.09861 5.9921 5.17155 6.50936 5.44125 6.94468L5.71243 7.37606" stroke="black" stroke-linecap="round" stroke-linejoin="round"/>
<path d="M20.1867 19.9601C21.5658 18.7973 22.4758 17.23 22.7657 15.5187C23.0555 13.8075 22.7076 12.0554 21.7799 10.5538L19.8591 7.46045C19.7255 7.2449 19.5477 7.05596 19.3358 6.9044C19.1238 6.75285 18.8819 6.64166 18.6238 6.57718C18.3657 6.51269 18.0964 6.49618 17.8315 6.52858C17.5665 6.56099 17.311 6.64167 17.0796 6.76602C16.8481 6.89038 16.6452 7.05597 16.4824 7.25334C16.3197 7.45072 16.2003 7.67601 16.131 7.91636C16.0618 8.15671 16.0441 8.4074 16.0788 8.65413C16.1136 8.90086 16.2003 9.13879 16.3338 9.35434" stroke="black" stroke-linecap="round" stroke-linejoin="round"/>
<path d="M16.5938 9.7751L13.3962 4.61951C13.1265 4.18419 12.6821 3.86647 12.1609 3.73624C11.6396 3.60601 11.0841 3.67394 10.6167 3.92508C10.1492 4.17623 9.808 4.59002 9.66815 5.07542C9.52829 5.56083 9.60124 6.07808 9.87094 6.5134" stroke="black" stroke-linecap="round" stroke-linejoin="round"/>
<path d="M18.921 1L18.4578 2.62033" stroke="#73C62F" stroke-linecap="round" stroke-linejoin="round"/>
<path d="M22.3447 2.48352L21.3052 3.86185" stroke="#73C62F" stroke-linecap="round" stroke-linejoin="round"/>
<path d="M25.0002 4.95593L23.52 5.92392" stroke="#73C62F" stroke-linecap="round" stroke-linejoin="round"/>
<path d="M33.9476 20.1726C33.1763 20.1726 32.486 19.9744 31.8766 19.5781C31.2672 19.1818 30.7857 18.6065 30.432 17.8523C30.0783 17.098 29.9015 16.1818 29.9015 15.1037C29.9015 14.0128 30.0804 13.0923 30.4384 12.3423C30.8006 11.5881 31.2885 11.0192 31.9022 10.6357C32.5158 10.2479 33.1998 10.054 33.954 10.054C34.5293 10.054 35.0023 10.152 35.373 10.348C35.7438 10.5398 36.0378 10.772 36.2551 11.0447C36.4725 11.3132 36.6408 11.5668 36.7601 11.8054H36.856V6.90909H39.1763V20H36.9007V18.4531H36.7601C36.6408 18.6918 36.4682 18.9453 36.2424 19.2138C36.0165 19.478 35.7182 19.7038 35.3475 19.8913C34.9767 20.0788 34.5101 20.1726 33.9476 20.1726ZM34.5932 18.2741C35.0833 18.2741 35.5009 18.142 35.8461 17.8778C36.1912 17.6094 36.4533 17.2365 36.6323 16.7592C36.8113 16.282 36.9007 15.7259 36.9007 15.0909C36.9007 14.456 36.8113 13.9041 36.6323 13.4354C36.4576 12.9666 36.1976 12.6023 35.8525 12.3423C35.5115 12.0824 35.0918 11.9524 34.5932 11.9524C34.0776 11.9524 33.6472 12.0866 33.302 12.3551C32.9569 12.6236 32.6969 12.9943 32.5222 13.4673C32.3475 13.9403 32.2601 14.4815 32.2601 15.0909C32.2601 15.7045 32.3475 16.2521 32.5222 16.7337C32.7012 17.2109 32.9632 17.5881 33.3084 17.8651C33.6578 18.1378 34.0861 18.2741 34.5932 18.2741ZM45.9247 20.1918C44.9659 20.1918 44.1349 19.9808 43.4318 19.5589C42.7287 19.1371 42.1832 18.5469 41.7955 17.7884C41.4119 17.0298 41.2202 16.1435 41.2202 15.1293C41.2202 14.1151 41.4119 13.2266 41.7955 12.4638C42.1832 11.701 42.7287 11.1087 43.4318 10.6868C44.1349 10.2649 44.9659 10.054 45.9247 10.054C46.8835 10.054 47.7145 10.2649 48.4176 10.6868C49.1207 11.1087 49.6641 11.701 50.0476 12.4638C50.4354 13.2266 50.6293 14.1151 50.6293 15.1293C50.6293 16.1435 50.4354 17.0298 50.0476 17.7884C49.6641 18.5469 49.1207 19.1371 48.4176 19.5589C47.7145 19.9808 46.8835 20.1918 45.9247 20.1918ZM45.9375 18.3381C46.4574 18.3381 46.892 18.1953 47.2415 17.9098C47.5909 17.62 47.8509 17.2322 48.0213 16.7464C48.196 16.2607 48.2834 15.7195 48.2834 15.1229C48.2834 14.522 48.196 13.9787 48.0213 13.4929C47.8509 13.0028 47.5909 12.6129 47.2415 12.3232C46.892 12.0334 46.4574 11.8885 45.9375 11.8885C45.4048 11.8885 44.9616 12.0334 44.608 12.3232C44.2585 12.6129 43.9964 13.0028 43.8217 13.4929C43.6513 13.9787 43.5661 14.522 43.5661 15.1229C43.5661 15.7195 43.6513 16.2607 43.8217 16.7464C43.9964 17.2322 44.2585 17.62 44.608 17.9098C44.9616 18.1953 45.4048 18.3381 45.9375 18.3381ZM56.8631 23.8864C56.0321 23.8864 55.3184 23.7734 54.7218 23.5476C54.1252 23.326 53.6458 23.0277 53.2836 22.6527C52.9213 22.2777 52.6699 21.8622 52.5293 21.4062L54.6131 20.9013C54.7069 21.093 54.8432 21.2827 55.0222 21.4702C55.2012 21.6619 55.4419 21.8196 55.7445 21.9432C56.0513 22.071 56.437 22.1349 56.9015 22.1349C57.5577 22.1349 58.101 21.9751 58.5314 21.6555C58.9618 21.3402 59.177 20.8203 59.177 20.0959V18.2358H59.062C58.9426 18.4744 58.7679 18.7195 58.5378 18.9709C58.312 19.2223 58.0115 19.4332 57.6365 19.6037C57.2658 19.7741 56.7992 19.8594 56.2367 19.8594C55.4824 19.8594 54.7985 19.6825 54.1848 19.3288C53.5755 18.9709 53.0897 18.4382 52.7275 17.7308C52.3695 17.0192 52.1905 16.1286 52.1905 15.0589C52.1905 13.9808 52.3695 13.071 52.7275 12.3295C53.0897 11.5838 53.5776 11.0192 54.1912 10.6357C54.8049 10.2479 55.4888 10.054 56.2431 10.054C56.8184 10.054 57.2914 10.152 57.6621 10.348C58.0371 10.5398 58.3354 10.772 58.557 11.0447C58.7786 11.3132 58.9469 11.5668 59.062 11.8054H59.1898V10.1818H61.4718V20.1598C61.4718 20.9993 61.2715 21.6939 60.8709 22.2436C60.4703 22.7933 59.9228 23.2045 59.2282 23.4773C58.5336 23.75 57.7452 23.8864 56.8631 23.8864ZM56.8823 18.044C57.3723 18.044 57.79 17.9247 58.1351 17.6861C58.4803 17.4474 58.7424 17.1044 58.9213 16.657C59.1003 16.2095 59.1898 15.6726 59.1898 15.0462C59.1898 14.4283 59.1003 13.8871 58.9213 13.4226C58.7466 12.9581 58.4867 12.598 58.1415 12.3423C57.8006 12.0824 57.3809 11.9524 56.8823 11.9524C56.3667 11.9524 55.9363 12.0866 55.5911 12.3551C55.2459 12.6236 54.986 12.9922 54.8113 13.4609C54.6365 13.9254 54.5492 14.4538 54.5492 15.0462C54.5492 15.647 54.6365 16.1733 54.8113 16.625C54.9902 17.0724 55.2523 17.4219 55.5975 17.6733C55.9469 17.9205 56.3752 18.044 56.8823 18.044ZM66.6685 20.1982C66.0463 20.1982 65.486 20.0874 64.9874 19.8658C64.4931 19.6399 64.101 19.3075 63.8113 18.8686C63.5257 18.4297 63.383 17.8885 63.383 17.245C63.383 16.6911 63.4853 16.233 63.6898 15.8707C63.8944 15.5085 64.1735 15.2188 64.5272 15.0014C64.8809 14.7841 65.2793 14.62 65.7225 14.5092C66.1699 14.3942 66.6323 14.3111 67.1096 14.2599C67.6848 14.2003 68.1515 14.147 68.5094 14.1001C68.8674 14.049 69.1273 13.9723 69.2892 13.87C69.4554 13.7635 69.5385 13.5994 69.5385 13.3778V13.3395C69.5385 12.858 69.3958 12.4851 69.1103 12.2209C68.8248 11.9567 68.4135 11.8246 67.8766 11.8246C67.3098 11.8246 66.8603 11.9482 66.5279 12.1953C66.1998 12.4425 65.9782 12.7344 65.8631 13.071L63.7026 12.7642C63.873 12.1676 64.1543 11.669 64.5463 11.2685C64.9384 10.8636 65.4178 10.5611 65.9846 10.3608C66.5513 10.1562 67.1777 10.054 67.8638 10.054C68.3368 10.054 68.8077 10.1094 69.2765 10.2202C69.7452 10.331 70.1735 10.5142 70.5613 10.7699C70.949 11.0213 71.2601 11.3643 71.4945 11.799C71.7331 12.2337 71.8525 12.777 71.8525 13.429V20H69.628V18.6513H69.5513C69.4107 18.924 69.2125 19.1797 68.9569 19.4183C68.7054 19.6527 68.388 19.8423 68.0044 19.9872C67.6252 20.1278 67.1799 20.1982 66.6685 20.1982ZM67.2694 18.4979C67.7338 18.4979 68.1365 18.4062 68.4775 18.223C68.8184 18.0355 69.0804 17.7884 69.2637 17.4815C69.4512 17.1747 69.5449 16.8402 69.5449 16.478V15.321C69.4725 15.3807 69.3489 15.4361 69.1742 15.4872C69.0037 15.5384 68.812 15.5831 68.5989 15.6214C68.3858 15.6598 68.1749 15.6939 67.9661 15.7237C67.7573 15.7536 67.5762 15.7791 67.4228 15.8004C67.0776 15.8473 66.7686 15.924 66.4959 16.0305C66.2232 16.1371 66.008 16.2862 65.8503 16.478C65.6926 16.6655 65.6138 16.9084 65.6138 17.2067C65.6138 17.6328 65.7694 17.9545 66.0804 18.1719C66.3915 18.3892 66.7878 18.4979 67.2694 18.4979ZM79.0819 10.1818V11.9716H73.4377V10.1818H79.0819ZM74.8311 7.82955H77.1451V17.0469C77.1451 17.358 77.1919 17.5966 77.2857 17.7628C77.3837 17.9247 77.5115 18.0355 77.6692 18.0952C77.8269 18.1548 78.0016 18.1847 78.1934 18.1847C78.3382 18.1847 78.4703 18.174 78.5897 18.1527C78.7132 18.1314 78.807 18.1122 78.8709 18.0952L79.2608 19.9041C79.1373 19.9467 78.9604 19.9936 78.7303 20.0447C78.5044 20.0959 78.2275 20.1257 77.8993 20.1342C77.3198 20.1513 76.7978 20.0639 76.3333 19.8722C75.8688 19.6761 75.5002 19.3736 75.2275 18.9645C74.959 18.5554 74.8269 18.044 74.8311 17.4304V7.82955ZM83.5419 14.2472V20H81.228V6.90909H83.4908V11.8501H83.6058C83.8359 11.2962 84.1918 10.8594 84.6733 10.5398C85.1591 10.2159 85.777 10.054 86.527 10.054C87.2088 10.054 87.8033 10.1967 88.3104 10.4822C88.8175 10.7678 89.2095 11.1854 89.4865 11.7351C89.7678 12.2848 89.9084 12.956 89.9084 13.7486V20H87.5945V14.1065C87.5945 13.446 87.424 12.9325 87.0831 12.5661C86.7464 12.1953 86.2734 12.0099 85.6641 12.0099C85.255 12.0099 84.8885 12.0994 84.5646 12.2784C84.245 12.4531 83.9936 12.7067 83.8104 13.0391C83.6314 13.3714 83.5419 13.7741 83.5419 14.2472ZM96.6136 20.1918C95.6293 20.1918 94.7791 19.9872 94.0632 19.5781C93.3516 19.1648 92.804 18.581 92.4205 17.8267C92.0369 17.0682 91.8452 16.1754 91.8452 15.1484C91.8452 14.1385 92.0369 13.2521 92.4205 12.4893C92.8082 11.7223 93.3494 11.1257 94.044 10.6996C94.7386 10.2692 95.5547 10.054 96.4922 10.054C97.0973 10.054 97.6683 10.152 98.2053 10.348C98.7464 10.5398 99.2237 10.8381 99.6371 11.2429C100.055 11.6477 100.383 12.1634 100.621 12.7898C100.86 13.4119 100.979 14.1534 100.979 15.0142V15.7237H92.9318V14.1641H98.7614C98.7571 13.7209 98.6612 13.3267 98.4737 12.9815C98.2862 12.6321 98.0241 12.3572 97.6875 12.157C97.3551 11.9567 96.9673 11.8565 96.5241 11.8565C96.0511 11.8565 95.6357 11.9716 95.2777 12.2017C94.9197 12.4276 94.6406 12.7259 94.4403 13.0966C94.2443 13.4631 94.1442 13.8658 94.1399 14.3047V15.6662C94.1399 16.2372 94.2443 16.7273 94.4531 17.1364C94.6619 17.5412 94.9538 17.8523 95.3288 18.0696C95.7038 18.2827 96.1428 18.3892 96.6456 18.3892C96.9822 18.3892 97.2869 18.3423 97.5597 18.2486C97.8324 18.1506 98.0689 18.0078 98.2692 17.8203C98.4695 17.6328 98.6207 17.4006 98.723 17.1236L100.884 17.3665C100.747 17.9375 100.487 18.4361 100.104 18.8622C99.7244 19.2841 99.2386 19.6122 98.6463 19.8466C98.054 20.0767 97.3764 20.1918 96.6136 20.1918ZM102.937 20V10.1818H105.181V11.8182H105.283C105.462 11.2514 105.769 10.8146 106.203 10.5078C106.642 10.1967 107.143 10.0412 107.705 10.0412C107.833 10.0412 107.976 10.0476 108.134 10.0604C108.296 10.0689 108.43 10.0838 108.536 10.1051V12.2337C108.438 12.1996 108.283 12.1697 108.07 12.1442C107.861 12.1143 107.659 12.0994 107.463 12.0994C107.041 12.0994 106.661 12.1911 106.325 12.3743C105.992 12.5533 105.73 12.8026 105.539 13.1222C105.347 13.4418 105.251 13.8104 105.251 14.228V20H102.937Z" fill="black"/>
</svg>
